<svg width="159" height="34" viewBox="0 0 159 34" fill="none" xmlns="http://www.w3.org/2000/svg">
<path d="M104.524 22.7216C101.341 22.7216 98.7483 20.132 98.7483 16.9456C98.7483 13.7592 101.338 11.1696 104.524 11.1696C107.711 11.1696 110.3 13.7592 110.3 16.9456C110.3 20.132 107.711 22.7216 104.524 22.7216ZM104.524 8.87538C100.066 8.87538 96.4541 12.4877 96.4541 16.9456C96.4541 21.4035 100.066 25.0158 104.524 25.0158C108.982 25.0158 112.595 21.4035 112.595 16.9456C112.595 12.4877 108.982 8.87538 104.524 8.87538Z" fill="white"/>
<path d="M124.119 15.6213V11.4245H128.785C129.941 11.4245 130.883 12.3665 130.883 13.5229C130.883 14.6793 129.941 15.6213 128.785 15.6213H124.119ZM133.18 13.5198C133.18 11.0919 131.213 9.12407 128.785 9.12407H121.821V24.7671H124.119V17.9155H127.753L131.412 24.7671H134.014L130.224 17.673C131.943 17.0762 133.18 15.4441 133.18 13.5198Z" fill="white"/>
<path d="M80.5997 17.9155H85.8503V19.1683C85.5736 19.9486 85.1415 20.6294 84.5571 21.1859C83.5188 22.1776 82.0577 22.7216 80.4411 22.7216C77.2578 22.7216 74.6651 20.132 74.6651 16.9456C74.6651 13.7592 77.2547 11.1696 80.4411 11.1696C82.039 11.1696 83.4877 11.8224 84.5353 12.8763L86.0959 11.1851C84.641 9.75514 82.6452 8.87226 80.4442 8.87226C75.9863 8.87226 72.374 12.4846 72.374 16.9425C72.374 21.4004 75.9863 25.0127 80.4442 25.0127C84.0566 25.0127 87.1249 22.9672 88.1508 19.5383V15.6151H80.6059V17.9124L80.5997 17.9155Z" fill="white"/>
<path d="M146.949 18.6989L149.694 12.1333L152.439 18.6989H146.949ZM150.928 9.12718H148.463L141.925 24.7702H144.412L145.988 20.9963H153.396L154.973 24.7702H157.46L150.922 9.12718H150.928Z" fill="white"/>
<path d="M62.5723 3.77087H58.2729L57.3558 5.96251H62.5723V3.77087Z" fill="white"/>
<path d="M54.53 18.6989L57.275 12.1333L60.02 18.6989H54.53ZM56.0408 9.12718L49.5032 24.7702H51.9901L53.5663 20.9963H60.9743L62.5505 24.7702H65.0374L58.4998 9.12718H56.0377H56.0408Z" fill="white"/>
<path d="M34 0H0V34H34V0Z" fill="#01C592"/>
<path d="M24.838 24.9127L18.3004 9.27274H18.2973H15.8134H15.8103L9.27271 24.9127H11.7597L17.0569 12.2447L22.3511 24.9127H24.838Z" fill="#01464D"/>
<path d="M51.2192 31.0841L51.8192 32.6757H50.6223L51.2223 31.0841H51.2192ZM51.0669 30.7172L49.9229 33.6923H50.2368L50.5135 32.9617H51.9249L52.2015 33.6923H52.5155L51.3715 30.7172H51.0669Z" fill="#879EA6"/>
<path d="M55.2574 32.2032C55.2574 31.3545 55.9041 30.6644 56.818 30.6644C57.3714 30.6644 57.8594 30.9535 58.105 31.3949L57.8408 31.5473C57.6574 31.1898 57.2626 30.9535 56.818 30.9535C56.0657 30.9535 55.5559 31.5099 55.5559 32.2032C55.5559 32.8964 56.0657 33.4529 56.818 33.4529C57.2626 33.4529 57.6574 33.2135 57.8408 32.8591L58.105 33.0084C57.8626 33.4498 57.3745 33.742 56.818 33.742C55.9041 33.742 55.2574 33.055 55.2574 32.2032Z" fill="#879EA6"/>
<path d="M60.2811 31.0841L60.8811 32.6757H59.6842L60.2842 31.0841H60.2811ZM60.1287 30.7172L58.9847 33.6923H59.2987L59.5754 32.9617H60.9867L61.2634 33.6923H61.5774L60.4365 30.7172H60.1287Z" fill="#879EA6"/>
<path d="M62.4386 33.0146L62.6935 32.8654C62.7992 33.2229 63.079 33.4498 63.5484 33.4498C64.0178 33.4498 64.2479 33.2322 64.2479 32.9151C64.2479 32.57 63.9557 32.4612 63.5173 32.3151C63.0324 32.1535 62.5661 32.026 62.5661 31.4789C62.5661 30.9317 62.9857 30.6644 63.48 30.6644C63.9743 30.6644 64.3069 30.9535 64.4624 31.3048L64.2106 31.4447C64.0987 31.1773 63.8717 30.9535 63.48 30.9535C63.1225 30.9535 62.8645 31.14 62.8645 31.4664C62.8645 31.7928 63.1194 31.8923 63.5235 32.0229C64.0645 32.2001 64.5494 32.3555 64.5494 32.9058C64.5494 33.4156 64.1422 33.7389 63.5453 33.7389C62.9982 33.7389 62.594 33.4622 62.4417 33.0115" fill="#879EA6"/>
<path d="M66.7441 31.0841L67.3441 32.6757H66.1472L66.7472 31.0841H66.7441ZM66.5918 30.7172L65.4478 33.6923H65.7617L66.0384 32.9617H67.4498L67.7264 33.6923H68.0404L66.8964 30.7172H66.5918Z" fill="#879EA6"/>
<path d="M73.2134 32.2032C73.2134 31.5348 72.7626 30.997 72.1005 30.997H71.2518V33.4094H72.1005C72.7626 33.4094 73.2134 32.8684 73.2134 32.2032ZM73.5025 32.2032C73.5025 33.0239 72.9212 33.6892 72.1005 33.6892H70.9534V30.7141H72.1005C72.9212 30.7141 73.5025 31.3825 73.5025 32.2001" fill="#879EA6"/>
<path d="M74.746 30.7172V33.6892H76.4868V33.4094H75.0444V32.3306H76.3594V32.0509H75.0444V30.997H76.4651V30.7172H74.746Z" fill="#879EA6"/>
<path d="M79.8255 30.7172H79.5271V33.6923H79.8255V30.7172Z" fill="#879EA6"/>
<path d="M83.1519 30.7172V33.1358L81.495 30.7172H81.2369V33.6892H81.5354V31.2675L83.1923 33.6892H83.4472V30.7172H83.1519Z" fill="#879EA6"/>
<path d="M86.7393 30.7172L85.8129 33.2943L84.8865 30.7172H84.5632L85.6606 33.6892H85.9653L87.0626 30.7172H86.7393Z" fill="#879EA6"/>
<path d="M88.1787 30.7172V33.6892H89.9196V33.4094H88.4771V32.3306H89.7921V32.0509H88.4771V30.997H89.8978V30.7172H88.1787Z" fill="#879EA6"/>
<path d="M90.9952 33.0146L91.2502 32.8654C91.3559 33.2229 91.6356 33.4498 92.1051 33.4498C92.5745 33.4498 92.8045 33.2322 92.8045 32.9151C92.8045 32.57 92.5123 32.4612 92.074 32.3151C91.589 32.1535 91.1227 32.026 91.1227 31.4789C91.1227 30.9317 91.5424 30.6644 92.0367 30.6644C92.5309 30.6644 92.8667 30.9535 93.019 31.3048L92.7672 31.4447C92.6553 31.1773 92.4284 30.9535 92.0367 30.9535C91.6792 30.9535 91.4211 31.14 91.4211 31.4664C91.4211 31.7928 91.6761 31.8923 92.0802 32.0229C92.6211 32.2001 93.1061 32.3555 93.1061 32.9058C93.1061 33.4156 92.6988 33.7389 92.1019 33.7389C91.5548 33.7389 91.1507 33.4622 90.9984 33.0115" fill="#879EA6"/>
<path d="M93.9827 30.7172V30.997H94.8966V33.6892H95.1951V30.997H96.109V30.7172H93.9827Z" fill="#879EA6"/>
<path d="M97.5639 30.7172H97.2655V33.6923H97.5639V30.7172Z" fill="#879EA6"/>
<path d="M101.329 30.7172L100.337 32.3711L99.3483 30.7172H98.9784V33.6892H99.2737V31.1649L100.315 32.9089H100.359L101.4 31.1649V33.6892H101.695V30.7172H101.329Z" fill="#879EA6"/>
<path d="M103.11 30.7172V33.6892H104.851V33.4094H103.408V32.3306H104.723V32.0509H103.408V30.997H104.832V30.7172H103.11Z" fill="#879EA6"/>
<path d="M108.006 30.7172V33.1358L106.349 30.7172H106.094V33.6892H106.393V31.2675L108.05 33.6892H108.305V30.7172H108.006Z" fill="#879EA6"/>
<path d="M109.464 30.7172V30.997H110.378V33.6892H110.673V30.997H111.587V30.7172H109.464Z" fill="#879EA6"/>
<path d="M115.184 32.2032C115.184 31.5099 114.649 30.9535 113.944 30.9535C113.238 30.9535 112.703 31.5099 112.703 32.2032C112.703 32.8964 113.238 33.4529 113.944 33.4529C114.649 33.4529 115.184 32.8964 115.184 32.2032ZM112.405 32.2032C112.405 31.3545 113.076 30.6644 113.944 30.6644C114.811 30.6644 115.483 31.3514 115.483 32.2032C115.483 33.055 114.811 33.742 113.944 33.742C113.076 33.742 112.405 33.055 112.405 32.2032Z" fill="#879EA6"/>
<path d="M116.449 33.0146L116.704 32.8654C116.81 33.2229 117.09 33.4498 117.559 33.4498C118.029 33.4498 118.259 33.2322 118.259 32.9151C118.259 32.57 117.966 32.4612 117.528 32.3151C117.043 32.1535 116.577 32.026 116.577 31.4789C116.577 30.9317 116.996 30.6644 117.491 30.6644C117.985 30.6644 118.318 30.9535 118.473 31.3048L118.221 31.4447C118.109 31.1773 117.882 30.9535 117.491 30.9535C117.133 30.9535 116.875 31.14 116.875 31.4664C116.875 31.7928 117.13 31.8923 117.534 32.0229C118.075 32.2001 118.56 32.3555 118.56 32.9058C118.56 33.4156 118.153 33.7389 117.556 33.7389C117.009 33.7389 116.605 33.4622 116.452 33.0115" fill="#879EA6"/>
<path d="M123.857 32.2032C123.857 31.5348 123.407 30.997 122.745 30.997H121.896V33.4094H122.745C123.407 33.4094 123.857 32.8685 123.857 32.2032ZM124.147 32.2032C124.147 33.0239 123.565 33.6892 122.745 33.6892H121.597V30.7141H122.745C123.565 30.7141 124.147 31.3825 124.147 32.2001" fill="#879EA6"/>
<path d="M127.998 32.2032C127.998 31.5099 127.463 30.9535 126.758 30.9535C126.052 30.9535 125.517 31.5099 125.517 32.2032C125.517 32.8964 126.052 33.4529 126.758 33.4529C127.463 33.4529 127.998 32.8964 127.998 32.2032ZM125.219 32.2032C125.219 31.3545 125.89 30.6644 126.758 30.6644C127.625 30.6644 128.297 31.3514 128.297 32.2032C128.297 33.055 127.625 33.742 126.758 33.742C125.89 33.742 125.219 33.055 125.219 32.2032Z" fill="#879EA6"/>
<path d="M132.876 32.7876C132.876 32.5887 132.73 32.4395 132.531 32.4395H131.856V33.1389H132.531C132.73 33.1389 132.876 32.9897 132.876 32.7876ZM131.856 31.2644V31.9203H132.441C132.624 31.9203 132.761 31.7804 132.761 31.5939C132.761 31.4074 132.63 31.2675 132.441 31.2675H131.856V31.2644ZM133.457 32.828C133.457 33.3379 133.044 33.6892 132.531 33.6892H131.269V30.7172H132.441C132.941 30.7172 133.345 31.0561 133.345 31.5535C133.345 31.8084 133.24 32.0073 133.066 32.1472C133.305 32.284 133.457 32.5172 133.457 32.828Z" fill="#879EA6"/>
<path d="M135.161 32.1441H135.764C135.985 32.1441 136.168 31.9483 136.168 31.7027C136.168 31.4571 135.985 31.2644 135.764 31.2644H135.161V32.1441ZM135.608 32.6571H135.164V33.6892H134.576V30.7141H135.767C136.314 30.7141 136.756 31.1556 136.756 31.6996C136.756 32.0726 136.522 32.4084 136.18 32.5669L136.839 33.6892H136.208L135.608 32.6571Z" fill="#879EA6"/>
<path d="M139.062 31.3918L139.469 32.6073H138.655L139.062 31.3918ZM138.695 30.7172L137.654 33.6923H138.288L138.468 33.1576H139.653L139.83 33.6923H140.467L139.423 30.7172H138.695Z" fill="#879EA6"/>
<path d="M143.542 32.2032C143.542 31.6561 143.184 31.2768 142.671 31.2768H142.078V33.1296H142.671C143.184 33.1296 143.542 32.7503 143.542 32.2032ZM144.101 32.2032C144.101 33.0394 143.489 33.6892 142.668 33.6892H141.487V30.7141H142.668C143.489 30.7141 144.101 31.3638 144.101 32.2001" fill="#879EA6"/>
<path d="M145.252 30.7172V33.6892H147.092V33.1296H145.839V32.4612H146.964V31.911H145.839V31.2768H147.07V30.7172H145.252Z" fill="#879EA6"/>
<path d="M148.084 33.0146L148.584 32.7223C148.69 32.999 148.898 33.1762 149.268 33.1762C149.638 33.1762 149.744 33.027 149.744 32.8622C149.744 32.6415 149.545 32.5576 149.103 32.427C148.649 32.2964 148.208 32.1037 148.208 31.5379C148.208 30.9721 148.674 30.655 149.184 30.655C149.694 30.655 150.048 30.9069 150.247 31.3234L149.753 31.6094C149.647 31.3856 149.486 31.227 149.184 31.227C148.939 31.227 148.792 31.3545 148.792 31.5255C148.792 31.7089 148.907 31.8053 149.358 31.9421C149.831 32.0913 150.331 32.2467 150.331 32.856C150.331 33.4125 149.887 33.7513 149.252 33.7513C148.618 33.7513 148.245 33.4591 148.084 33.0177" fill="#879EA6"/>
<path d="M151.292 32.2032C151.292 31.3327 151.938 30.6582 152.84 30.6582C153.384 30.6582 153.863 30.9348 154.118 31.3576L153.611 31.6498C153.465 31.3856 153.179 31.2239 152.837 31.2239C152.256 31.2239 151.873 31.6281 151.873 32.2001C151.873 32.7721 152.256 33.1731 152.837 33.1731C153.176 33.1731 153.471 33.0115 153.611 32.7534L154.118 33.0457C153.866 33.4715 153.387 33.7482 152.84 33.7482C151.938 33.7482 151.292 33.0674 151.292 32.2001" fill="#879EA6"/>
<path d="M157.547 32.2032C157.547 31.6312 157.127 31.2271 156.586 31.2271C156.045 31.2271 155.625 31.6312 155.625 32.2032C155.625 32.7752 156.045 33.1762 156.586 33.1762C157.127 33.1762 157.547 32.7721 157.547 32.2032ZM155.044 32.2032C155.044 31.3327 155.728 30.6582 156.586 30.6582C157.444 30.6582 158.134 31.3327 158.134 32.2032C158.134 33.0736 157.447 33.7513 156.586 33.7513C155.725 33.7513 155.044 33.0705 155.044 32.2032Z" fill="#879EA6"/>
</svg>
