<svg width="247" height="23" viewBox="0 0 247 23" fill="none" xmlns="http://www.w3.org/2000/svg">
<path d="M7.89597 1.43051e-05H9.95997L2.06397 20.904H-2.82824e-05L7.89597 1.43051e-05ZM236.133 1.43051e-05H238.197L246.093 20.904H244.029L236.133 1.43051e-05Z" fill="#01C592" fill-opacity="0.05"/>
<path d="M58.4115 1.41601C59.5635 1.41601 60.5555 1.64001 61.3875 2.08801C62.2195 2.52001 62.8515 3.12001 63.2835 3.88801C63.7155 4.64001 63.9315 5.50401 63.9315 6.48001C63.9315 7.44001 63.7075 8.30401 63.2595 9.07201C62.8275 9.82401 62.1955 10.424 61.3635 10.872C60.5315 11.304 59.5475 11.52 58.4115 11.52H54.6915V17.64H52.7475V1.41601H58.4115ZM58.1715 9.69601C59.3875 9.69601 60.3155 9.41601 60.9555 8.85601C61.6115 8.29601 61.9395 7.50401 61.9395 6.48001C61.9395 5.45601 61.6115 4.65601 60.9555 4.08001C60.3155 3.48801 59.3875 3.19201 58.1715 3.19201H54.6915V9.69601H58.1715ZM69.8173 17.88C68.5373 17.88 67.5293 17.568 66.7933 16.944C66.0733 16.32 65.7133 15.448 65.7133 14.328C65.7133 13.176 66.1613 12.272 67.0573 11.616C67.9533 10.96 69.2013 10.632 70.8013 10.632H73.9213V10.128C73.9213 8.92801 73.6653 8.04801 73.1533 7.48801C72.6573 6.92801 71.8653 6.64801 70.7773 6.64801C70.1373 6.64801 69.5133 6.77601 68.9053 7.03201C68.3133 7.28801 67.7853 7.64801 67.3213 8.11201L66.1453 6.91201C66.7533 6.28801 67.4653 5.80001 68.2813 5.44801C69.0973 5.09601 69.9533 4.92001 70.8493 4.92001C72.4653 4.92001 73.6893 5.37601 74.5213 6.28801C75.3533 7.18401 75.7693 8.52801 75.7693 10.32V17.64H74.5933L74.0173 15.864C73.4573 16.472 72.7933 16.96 72.0253 17.328C71.2733 17.696 70.5373 17.88 69.8173 17.88ZM69.9613 16.224C70.6333 16.224 71.3293 16.032 72.0493 15.648C72.7693 15.248 73.3933 14.744 73.9213 14.136V12.216H70.7293C69.7213 12.216 68.9293 12.4 68.3533 12.768C67.7933 13.136 67.5133 13.648 67.5133 14.304C67.5133 14.88 67.7373 15.344 68.1853 15.696C68.6493 16.048 69.2413 16.224 69.9613 16.224ZM80.3313 5.16001L80.9073 7.05601C81.4833 6.40001 82.1713 5.88801 82.9713 5.52001C83.7713 5.15201 84.6193 4.96801 85.5153 4.96801H85.8753V6.74401H85.2753C84.4593 6.74401 83.6753 6.93601 82.9233 7.32001C82.1873 7.70401 81.5633 8.25601 81.0513 8.97601V17.64H79.1313V5.16001H80.3313ZM92.6606 17.88C91.3166 17.88 90.2686 17.464 89.5166 16.632C88.7806 15.8 88.4126 14.656 88.4126 13.2V2.08801L90.3326 1.72801V5.16001H95.2286V6.84001H90.3326V13.272C90.3326 14.152 90.5326 14.848 90.9326 15.36C91.3326 15.872 91.9006 16.128 92.6366 16.128C93.1166 16.128 93.5086 16.072 93.8126 15.96C94.1166 15.832 94.4206 15.648 94.7246 15.408L95.7086 16.68C94.7806 17.48 93.7646 17.88 92.6606 17.88ZM97.9762 5.16001H99.8962V17.64H97.9762V5.16001ZM98.9602 2.83201C98.6082 2.83201 98.3122 2.72001 98.0722 2.49601C97.8322 2.25601 97.7122 1.96001 97.7122 1.60801C97.7122 1.24001 97.8242 0.944014 98.0482 0.720014C98.2882 0.480014 98.5922 0.360014 98.9602 0.360014C99.3122 0.360014 99.6082 0.480014 99.8482 0.720014C100.088 0.944014 100.208 1.24001 100.208 1.60801C100.208 1.96001 100.088 2.25601 99.8482 2.49601C99.6082 2.72001 99.3122 2.83201 98.9602 2.83201ZM108.978 17.88C107.794 17.88 106.746 17.608 105.834 17.064C104.922 16.52 104.21 15.76 103.698 14.784C103.202 13.808 102.954 12.68 102.954 11.4C102.954 10.184 103.21 9.08801 103.722 8.11201C104.25 7.12001 104.97 6.34401 105.882 5.78401C106.81 5.20801 107.85 4.92001 109.002 4.92001C110.682 4.92001 112.106 5.56001 113.274 6.84001L112.05 8.04001C111.634 7.57601 111.178 7.23201 110.682 7.00801C110.202 6.76801 109.65 6.64801 109.026 6.64801C107.778 6.64801 106.77 7.08801 106.002 7.96801C105.25 8.83201 104.874 9.97601 104.874 11.4C104.874 12.344 105.05 13.176 105.402 13.896C105.754 14.616 106.242 15.176 106.866 15.576C107.506 15.96 108.226 16.152 109.026 16.152C110.226 16.152 111.274 15.664 112.17 14.688L113.394 15.912C112.162 17.224 110.69 17.88 108.978 17.88ZM115.976 5.16001H117.896V17.64H115.976V5.16001ZM116.96 2.83201C116.608 2.83201 116.312 2.72001 116.072 2.49601C115.832 2.25601 115.712 1.96001 115.712 1.60801C115.712 1.24001 115.824 0.944014 116.048 0.720014C116.288 0.480014 116.592 0.360014 116.96 0.360014C117.312 0.360014 117.608 0.480014 117.848 0.720014C118.088 0.944014 118.208 1.24001 118.208 1.60801C118.208 1.96001 118.088 2.25601 117.848 2.49601C117.608 2.72001 117.312 2.83201 116.96 2.83201ZM122.706 5.16001L123.258 7.00801C123.802 6.36801 124.466 5.86401 125.25 5.49601C126.034 5.11201 126.858 4.92001 127.722 4.92001C128.794 4.92001 129.746 5.18401 130.578 5.71201C131.426 6.22401 132.082 6.96801 132.546 7.94401C133.026 8.90401 133.266 10.032 133.266 11.328C133.266 12.656 132.986 13.816 132.426 14.808C131.866 15.784 131.106 16.536 130.146 17.064C129.202 17.576 128.17 17.832 127.05 17.832C126.41 17.832 125.77 17.728 125.13 17.52C124.506 17.312 123.938 17.024 123.426 16.656V22.536L121.506 22.92V5.16001H122.706ZM126.882 16.104C128.21 16.104 129.282 15.696 130.098 14.88C130.93 14.064 131.346 12.88 131.346 11.328C131.346 9.85601 130.994 8.71201 130.29 7.89601C129.602 7.08001 128.666 6.67201 127.482 6.67201C126.65 6.67201 125.882 6.87201 125.178 7.27201C124.49 7.67201 123.906 8.22401 123.426 8.92801V14.784C123.906 15.184 124.442 15.504 125.034 15.744C125.642 15.984 126.258 16.104 126.882 16.104ZM139.872 17.88C138.592 17.88 137.584 17.568 136.848 16.944C136.128 16.32 135.768 15.448 135.768 14.328C135.768 13.176 136.216 12.272 137.112 11.616C138.008 10.96 139.256 10.632 140.856 10.632H143.976V10.128C143.976 8.92801 143.72 8.04801 143.208 7.48801C142.712 6.92801 141.92 6.64801 140.832 6.64801C140.192 6.64801 139.568 6.77601 138.96 7.03201C138.368 7.28801 137.84 7.64801 137.376 8.11201L136.2 6.91201C136.808 6.28801 137.52 5.80001 138.336 5.44801C139.152 5.09601 140.008 4.92001 140.904 4.92001C142.52 4.92001 143.744 5.37601 144.576 6.28801C145.408 7.18401 145.824 8.52801 145.824 10.32V17.64H144.648L144.072 15.864C143.512 16.472 142.848 16.96 142.08 17.328C141.328 17.696 140.592 17.88 139.872 17.88ZM140.016 16.224C140.688 16.224 141.384 16.032 142.104 15.648C142.824 15.248 143.448 14.744 143.976 14.136V12.216H140.784C139.776 12.216 138.984 12.4 138.408 12.768C137.848 13.136 137.568 13.648 137.568 14.304C137.568 14.88 137.792 15.344 138.24 15.696C138.704 16.048 139.296 16.224 140.016 16.224ZM150.386 5.16001L150.938 7.00801C151.498 6.35201 152.138 5.84001 152.858 5.47201C153.594 5.10401 154.362 4.92001 155.162 4.92001C156.698 4.92001 157.866 5.40801 158.666 6.38401C159.466 7.34401 159.866 8.71201 159.866 10.488V17.64H157.946V10.8C157.946 9.37601 157.706 8.33601 157.226 7.68001C156.762 7.00801 155.986 6.67201 154.898 6.67201C154.162 6.67201 153.466 6.87201 152.81 7.27201C152.154 7.67201 151.586 8.22401 151.106 8.92801V17.64H149.186V5.16001H150.386ZM167.215 17.88C165.871 17.88 164.823 17.464 164.071 16.632C163.335 15.8 162.967 14.656 162.967 13.2V2.08801L164.887 1.72801V5.16001H169.783V6.84001H164.887V13.272C164.887 14.152 165.087 14.848 165.487 15.36C165.887 15.872 166.455 16.128 167.191 16.128C167.671 16.128 168.063 16.072 168.367 15.96C168.671 15.832 168.975 15.648 169.279 15.408L170.263 16.68C169.335 17.48 168.319 17.88 167.215 17.88ZM177.346 17.88C176.114 17.88 175.042 17.592 174.13 17.016C173.218 16.424 172.522 15.632 172.042 14.64C171.562 13.648 171.322 12.552 171.322 11.352C171.322 10.152 171.562 9.06401 172.042 8.08801C172.538 7.09601 173.218 6.32001 174.082 5.76001C174.962 5.20001 175.962 4.92001 177.082 4.92001C178.186 4.92001 179.146 5.19201 179.962 5.73601C180.778 6.28001 181.402 7.04001 181.834 8.01601C182.266 8.99201 182.482 10.104 182.482 11.352V12H173.218C173.298 13.2 173.714 14.2 174.466 15C175.234 15.784 176.21 16.176 177.394 16.176C178.706 16.176 179.818 15.704 180.73 14.76L181.978 15.888C181.386 16.496 180.698 16.984 179.914 17.352C179.146 17.704 178.29 17.88 177.346 17.88ZM180.538 10.368C180.458 9.18401 180.114 8.25601 179.506 7.58401C178.898 6.91201 178.066 6.57601 177.01 6.57601C175.986 6.57601 175.138 6.92001 174.466 7.60801C173.81 8.29601 173.402 9.21601 173.242 10.368H180.538ZM189.692 17.88C187.58 17.88 185.852 17.168 184.508 15.744L185.684 14.496C186.788 15.6 188.14 16.152 189.74 16.152C190.62 16.152 191.292 16 191.756 15.696C192.236 15.392 192.476 14.952 192.476 14.376C192.476 13.72 192.22 13.224 191.708 12.888C191.212 12.552 190.444 12.288 189.404 12.096C188.316 11.872 187.46 11.608 186.836 11.304C186.212 11 185.756 10.616 185.468 10.152C185.196 9.68801 185.06 9.08801 185.06 8.35201C185.06 7.71201 185.244 7.13601 185.612 6.62401C185.98 6.09601 186.5 5.68001 187.172 5.37601C187.86 5.07201 188.652 4.92001 189.548 4.92001C191.34 4.92001 192.844 5.56801 194.06 6.86401L192.884 8.06401C191.924 7.10401 190.812 6.62401 189.548 6.62401C188.684 6.62401 188.02 6.77601 187.556 7.08001C187.108 7.38401 186.884 7.81601 186.884 8.37601C186.884 8.79201 186.996 9.12801 187.22 9.38401C187.444 9.62401 187.772 9.82401 188.204 9.98401C188.636 10.128 189.26 10.28 190.076 10.44C191.596 10.76 192.692 11.224 193.364 11.832C194.036 12.424 194.372 13.232 194.372 14.256C194.372 15.344 193.964 16.224 193.148 16.896C192.348 17.552 191.196 17.88 189.692 17.88Z" fill="white"/>
<path d="M24.9585 1.43051e-05H27.0225L19.1265 20.904H17.0625L24.9585 1.43051e-05ZM219.07 1.43051e-05H221.134L229.03 20.904H226.966L219.07 1.43051e-05Z" fill="#01C592" fill-opacity="0.5"/>
<path d="M42.021 1.43051e-05H44.085L36.189 20.904H34.125L42.021 1.43051e-05ZM202.008 1.43051e-05H204.072L211.968 20.904H209.904L202.008 1.43051e-05Z" fill="#01C592"/>
</svg>
